HIERARCHY
ROOT Hips
{
	OFFSET 0.000000 8.830580 0.000000
	CHANNELS 6 Xposition Yposition Zposition Zrotation Yrotation Xrotation 
	JOINT Spine
	{
		OFFSET 0.000000 0.010000 0.000000
		CHANNELS 3 Zrotation Yrotation Xrotation
		JOINT Spine1
		{
			OFFSET 0.000000 2.459130 0.000000
			CHANNELS 3 Zrotation Yrotation Xrotation
			JOINT Neck
			{
				OFFSET 0.000000 2.484630 0.000000
				CHANNELS 3 Zrotation Yrotation Xrotation
				JOINT Head_virtual
				{
					OFFSET 0.000000 0.000000 0.000000
					CHANNELS 3 Zrotation Yrotation Xrotation
					JOINT Head
					{
						OFFSET 0.000000 0.927525 0.000000
						CHANNELS 3 Zrotation Yrotation Xrotation
						End Site
						{
							OFFSET 0.000000 0.000000 0.000000
						}
					}
				}
				JOINT LeftUpArm_virtual
				{
					OFFSET 0.000000 0.000000 0.000000
					CHANNELS 3 Zrotation Yrotation Xrotation
					JOINT LeftUpArm
					{
						OFFSET 1.248820 0.000000 0.000000
						CHANNELS 3 Zrotation Yrotation Xrotation
						JOINT LeftForeArm
						{
							OFFSET 2.597580 0.000000 0.000000
							CHANNELS 3 Zrotation Yrotation Xrotation
							JOINT LeftHand
							{
								OFFSET 2.455420 0.000000 0.000000
								CHANNELS 3 Zrotation Yrotation Xrotation
								End Site
								{
									OFFSET 0.000000 0.000000 0.000000
								}
							}
						}
					}
				}
				JOINT RightUpArm_virtual
				{
					OFFSET -0.000000 -0.000000 -0.000000
					CHANNELS 3 Zrotation Yrotation Xrotation
					JOINT RightUpArm
					{
						OFFSET -1.248820 -0.000000 -0.000000
						CHANNELS 3 Zrotation Yrotation Xrotation
						JOINT RightForeArm
						{
							OFFSET -2.597580 -0.000000 -0.000000
							CHANNELS 3 Zrotation Yrotation Xrotation
							JOINT RightHand
							{
								OFFSET -2.455420 -0.000000 -0.000000
								CHANNELS 3 Zrotation Yrotation Xrotation
								End Site
								{
									OFFSET 0.000000 0.000000 0.000000
								}
							}
						}
					}
				}
			}
		}
	}
	JOINT LeftUpLeg
	{
		OFFSET 1.271939 0.000000 0.000000
		CHANNELS 3 Zrotation Yrotation Xrotation
		JOINT LeftLowLeg
		{
			OFFSET 0.000000 -4.342910 0.000000
			CHANNELS 3 Zrotation Yrotation Xrotation
			JOINT LeftFoot
			{
				OFFSET 0.000000 -4.487670 0.000000
				CHANNELS 3 Zrotation Yrotation Xrotation
				JOINT LeftToeBase
				{
					OFFSET 0.000000 0.000000 1.515070
					CHANNELS 3 Zrotation Yrotation Xrotation
					End Site
					{
						OFFSET 0.000000 0.000000 0.000000
					}
				}
			}
		}
	}
	JOINT RightUpLeg
	{
		OFFSET -1.271939 0.000000 0.000000
		CHANNELS 3 Zrotation Yrotation Xrotation
		JOINT RightLowLeg
		{
			OFFSET 0.000000 -4.342910 0.000000
			CHANNELS 3 Zrotation Yrotation Xrotation
			JOINT RightFoot
			{
				OFFSET 0.000000 -4.487670 0.000000
				CHANNELS 3 Zrotation Yrotation Xrotation
				JOINT RightToeBase
				{
					OFFSET 0.000000 0.000000 1.515070
					CHANNELS 3 Zrotation Yrotation Xrotation
					End Site
					{
						OFFSET 0.000000 0.000000 0.000000
					}
				}
			}
		}
	}
}
MOTION
Frames: 14
Frame Time: 0.041667
-19.173769 9.064203 45.433190 -171.252156 12.053746 -175.452735 3.697425 1.635787 -1.303121 5.372555 2.253779 -2.063287 0.000000 0.000000 0.000000 -2.860031 3.386299 19.772625 13.002218 0.015195 -89.338172 -25.140699 0.642523 10.094700 17.540501 -46.988998 5.570850 0.000000 -30.329599 0.000000 27.772100 1.445430 42.160099 23.533701 9.820430 20.843300 -11.358300 42.943600 -4.144420 0.000000 38.948700 0.000000 -20.203300 -7.489280 50.756802 13.167034 10.147246 -16.838037 0.000000 0.000000 33.569000 -21.025075 3.780928 -2.371564 0.000000 0.000000 -33.269699 14.231111 -7.379739 -6.139055 0.000000 0.000000 11.156300 6.519652 -8.555553 8.485450 0.000000 0.000000 -35.592501 
-19.143484 9.056411 45.425658 -171.099749 12.172692 -175.433228 3.762004 1.623436 -1.370210 5.491716 2.250066 -2.250046 0.000000 0.000000 0.000000 -2.835273 3.472258 19.857401 12.990203 0.069155 -89.233115 -24.762600 0.767597 9.188230 17.559401 -44.365799 4.930230 0.000000 -28.408600 0.000000 27.673201 1.980390 41.907200 22.991400 9.801290 19.160999 -10.876900 40.507401 -4.937520 0.000000 36.890301 0.000000 -20.698200 -6.540250 51.828400 13.033672 12.605129 -17.548283 0.000000 0.000000 34.532501 -20.645436 3.952285 -2.295964 0.000000 0.000000 -32.953300 14.510981 -6.942299 -5.837405 0.000000 0.000000 10.791800 6.667055 -8.669192 8.443519 0.000000 0.000000 -35.986500 
-19.114261 9.051698 45.412146 -170.990783 12.281792 -175.395654 3.772134 1.546107 -1.292741 5.645575 2.208201 -2.879560 0.000000 0.000000 0.000000 -2.899509 3.652174 20.284522 13.035642 0.078954 -89.154174 -24.394899 1.156370 8.247670 17.332001 -41.769798 4.942790 0.000000 -26.407101 0.000000 27.572901 2.214740 41.500301 22.553301 9.703660 17.965000 -10.773000 37.853901 -5.532680 0.000000 35.068901 0.000000 -21.233900 -5.621950 51.113499 12.786822 15.108401 -18.174263 0.000000 0.000000 35.161999 -20.295704 4.270275 -2.257770 0.000000 0.000000 -33.562401 14.745676 -6.605040 -5.556999 0.000000 0.000000 10.545500 6.497946 -8.926285 8.305072 0.000000 0.000000 -35.537100 
-19.086764 9.047610 45.391271 -170.913740 12.350033 -175.375820 3.691089 1.584439 -1.692837 5.965480 2.238702 -2.717446 0.000000 0.000000 0.000000 -2.937765 3.637870 20.404463 13.157572 -0.003884 -89.094506 -24.082899 1.371050 7.009630 17.033800 -39.335300 5.556180 0.000000 -24.482000 0.000000 27.502399 2.622060 40.961399 22.039000 9.411370 16.503099 -10.959200 35.111401 -6.021100 0.000000 33.395599 0.000000 -21.155300 -5.606860 52.434200 12.481007 17.276704 -18.637575 0.000000 0.000000 35.398800 -20.414891 4.527145 -2.303189 0.000000 0.000000 -33.629999 14.919720 -5.874562 -5.233380 0.000000 0.000000 10.281500 6.561883 -9.435423 8.148576 0.000000 0.000000 -35.365999 
-19.061866 9.044953 45.366554 -170.867670 12.392685 -175.377280 3.622922 1.556729 -1.916247 6.291701 2.225698 -2.910758 0.000000 0.000000 0.000000 -3.181113 3.853159 20.756315 13.446982 -0.210616 -89.037981 -23.693300 1.610950 5.722970 16.266600 -36.697300 6.466460 0.000000 -22.574600 0.000000 27.387400 2.534250 40.887901 21.354700 8.914770 14.907100 -10.715600 32.704201 -6.086820 0.000000 31.859200 0.000000 -20.839701 -5.819630 52.825500 12.094420 19.209233 -18.987299 0.000000 0.000000 35.301498 -19.226791 5.437610 -2.337122 0.000000 0.000000 -33.396400 15.058013 -5.388284 -4.850987 0.000000 0.000000 9.940930 6.432629 -9.840417 8.042734 0.000000 0.000000 -34.476101 
-19.039231 9.043284 45.338127 -170.870431 12.431732 -175.347473 3.519954 1.533753 -2.156813 6.578576 2.228776 -3.212503 0.000000 0.000000 0.000000 -3.311746 3.901662 21.229202 13.554474 -0.372693 -88.940533 -23.276300 1.988200 3.968900 15.122300 -34.313900 7.528640 0.000000 -20.886999 0.000000 26.702299 3.094400 40.732101 20.762699 8.226840 13.344800 -10.546300 30.441999 -6.328970 0.000000 30.267300 0.000000 -20.253201 -5.374590 52.973099 11.664955 20.876796 -19.281905 0.000000 0.000000 34.969601 -19.296571 5.774318 -2.413554 0.000000 0.000000 -33.201900 15.139427 -4.577724 -4.512956 0.000000 0.000000 9.670750 6.634825 -10.520388 7.839825 0.000000 0.000000 -34.917101 
-19.019183 9.041789 45.307780 -170.914258 12.432441 -175.206310 3.411110 1.498827 -2.460602 6.776954 2.226213 -3.567186 0.000000 0.000000 0.000000 -3.398964 3.931393 21.633905 13.650821 -0.508342 -88.796547 -22.879801 2.416000 2.628900 14.333600 -31.832100 7.138260 0.000000 -19.376499 0.000000 25.566900 3.181520 40.324600 20.256001 7.576950 12.089600 -10.503500 28.096701 -7.303100 0.000000 28.820499 0.000000 -19.512400 -5.231000 53.258202 11.117492 22.365552 -19.691643 0.000000 0.000000 34.511101 -18.377232 6.659229 -2.342814 0.000000 0.000000 -32.950800 15.190980 -4.305420 -4.296848 0.000000 0.000000 9.396180 6.585205 -10.802473 7.687266 0.000000 0.000000 -34.916000 
-19.001980 9.040651 45.276800 -170.983432 12.424874 -175.090394 3.338701 1.441303 -2.679238 6.884485 2.209041 -4.036975 0.000000 0.000000 0.000000 -3.467927 3.964068 22.131995 13.736287 -0.622090 -88.634392 -22.570400 3.073160 1.431900 13.833700 -29.659300 6.695630 0.000000 -17.699200 0.000000 25.069700 3.332710 39.409599 19.911600 6.806730 11.206100 -10.825100 26.001200 -8.576610 0.000000 27.244400 0.000000 -19.193199 -5.037700 53.401501 10.553117 23.623280 -20.062468 0.000000 0.000000 34.055302 -18.274781 7.525636 -2.418848 0.000000 0.000000 -32.822399 15.203868 -4.141525 -4.114613 0.000000 0.000000 9.206340 6.535760 -11.029085 7.528371 0.000000 0.000000 -34.899500 
-18.986686 9.040316 45.247528 -171.089068 12.536341 -174.908443 3.259220 1.448222 -2.869767 6.920781 2.266178 -4.595842 0.000000 0.000000 0.000000 -3.542246 4.016331 22.697222 13.806147 -0.709932 -88.539024 -22.206800 3.816590 0.033186 13.179100 -27.780300 6.023030 0.000000 -15.996900 0.000000 24.737600 3.578790 39.433601 19.499901 5.959850 9.717750 -10.773800 23.943501 -8.935670 0.000000 26.530100 0.000000 -18.986401 -5.462980 53.844601 9.946011 24.803250 -20.458636 0.000000 0.000000 33.653198 -18.163338 8.638708 -2.561782 0.000000 0.000000 -33.125299 15.167422 -3.004476 -3.970126 0.000000 0.000000 8.954980 6.616705 -12.006241 7.312456 0.000000 0.000000 -34.780899 
-18.972618 9.040082 45.218428 -171.210017 12.623381 -174.781435 3.178785 1.451637 -3.001414 6.936108 2.321747 -5.169766 0.000000 0.000000 0.000000 -3.537372 3.917936 23.308742 13.717546 -0.781405 -88.393847 -21.805700 4.432540 -1.755820 12.261400 -25.966700 4.967970 0.000000 -14.692400 0.000000 24.677299 4.436450 38.998501 19.057301 4.893220 8.297100 -10.726200 22.457100 -9.611950 0.000000 25.679199 0.000000 -18.981199 -5.805020 54.123299 9.396584 25.669624 -20.751345 0.000000 0.000000 33.303799 -18.330218 9.660663 -2.788576 0.000000 0.000000 -32.486500 15.119146 -2.867791 -3.987972 0.000000 0.000000 9.087010 6.532160 -12.168970 7.105045 0.000000 0.000000 -34.751400 
-18.961426 9.041070 45.191690 -171.284926 12.797163 -174.627785 3.182010 1.501728 -3.129626 6.888373 2.416744 -5.719174 0.000000 0.000000 0.000000 -3.575200 3.921571 24.000781 13.682720 -0.827199 -88.326641 -21.469601 4.976970 -2.808270 11.831800 -24.142900 2.411100 0.000000 -13.459200 0.000000 24.395901 5.283760 38.846802 18.835800 3.918020 7.507110 -11.142000 20.965900 -10.807500 0.000000 24.798000 0.000000 -19.329100 -5.388500 52.239899 8.953332 26.319251 -20.987621 0.000000 0.000000 33.021301 -18.344923 10.646388 -2.961626 0.000000 0.000000 -32.061600 15.086235 -2.684141 -4.040610 0.000000 0.000000 9.236620 6.401401 -12.324907 6.999805 0.000000 0.000000 -34.679199 
-18.950490 9.042048 45.163956 -171.388573 12.877658 -174.619444 3.208961 1.500740 -3.211563 6.714830 2.446830 -6.111823 0.000000 0.000000 0.000000 -3.494432 3.834407 24.571366 13.598406 -0.781012 -88.208166 -21.231001 5.534840 -3.440920 11.995900 -22.486500 0.342794 0.000000 -12.218600 0.000000 24.773800 5.679440 36.404099 18.654600 3.100710 6.582580 -11.373400 19.491400 -11.971300 0.000000 24.166201 0.000000 -19.724501 -5.166220 50.383999 8.636673 26.685317 -21.008137 0.000000 0.000000 32.790199 -18.278670 11.558923 -3.127488 0.000000 0.000000 -31.848600 15.020092 -2.716904 -3.936572 0.000000 0.000000 9.343020 6.356967 -12.328759 6.851660 0.000000 0.000000 -34.655001 
-18.943180 9.043123 45.141698 -171.430828 12.899417 -174.543111 3.352107 1.486083 -3.232198 6.460001 2.456252 -6.541987 0.000000 0.000000 0.000000 -3.516715 3.953621 24.970267 13.884589 -0.789827 -88.115576 -21.105700 6.207940 -3.994800 12.414700 -21.278500 -1.600930 0.000000 -10.953000 0.000000 24.992901 6.367550 35.120098 18.514900 2.503620 6.018010 -11.779200 17.825600 -13.128000 0.000000 23.728300 0.000000 -19.904800 -5.098950 48.980900 8.404704 26.776976 -21.112161 0.000000 0.000000 32.684601 -18.399679 12.387161 -3.389803 0.000000 0.000000 -32.289700 15.000045 -2.777159 -3.961460 0.000000 0.000000 9.505450 6.324263 -12.302924 6.747729 0.000000 0.000000 -34.539101 
-18.933861 9.045778 45.115231 -171.520555 13.181539 -174.644773 3.371772 1.611434 -3.269735 6.314700 2.593881 -6.677022 0.000000 0.000000 0.000000 -3.547176 3.960807 25.356089 14.115194 -0.812020 -88.207164 -21.037001 6.760760 -4.850340 12.725100 -20.278500 -3.199020 0.000000 -9.790560 0.000000 25.324301 6.899460 34.145000 18.519300 1.655360 5.690580 -12.595100 16.738899 -14.152200 0.000000 23.066500 0.000000 -20.274700 -5.271040 47.997002 8.341308 27.092874 -20.792474 0.000000 0.000000 32.567501 -18.522260 12.804183 -3.528653 0.000000 0.000000 -32.260500 14.905292 -2.587918 -3.728588 0.000000 0.000000 9.598530 6.293209 -12.330614 6.676308 0.000000 0.000000 -34.439800 
